<svg xmlns="http://www.w3.org/2000/svg" viewBox="0 0 1052.3622 744.09448" height="210mm" width="297mm"><path style="line-height:125%;-inkscape-font-specification:Ubuntu" d="M595.983 424.4c2.52 0 5.355.21 8.505.63 3.36.21 6.615.63 9.765 1.26 3.15.42 5.985.946 8.505 1.576 2.73.42 4.725.84 5.985 1.26l-5.04 25.515c-2.31-.84-6.195-1.784-11.655-2.834-5.25-1.26-12.075-1.89-20.475-1.89-5.46 0-10.92.63-16.38 1.89-5.25 1.05-8.715 1.785-10.395 2.205v137.62h-29.295V434.797c6.93-2.52 15.54-4.83 25.83-6.93 10.29-2.31 21.84-3.465 34.65-3.465zM712.76 570.56q10.394 0 18.27-.314 8.19-.63 13.544-1.89V519.53q-3.15-1.574-10.395-2.52-6.93-1.26-17.01-1.26-6.616 0-14.176.946-7.245.945-13.545 4.095-5.986 2.836-10.08 8.19-4.096 5.04-4.096 13.546 0 15.75 10.08 22.05 10.08 5.985 27.405 5.985zm-2.52-146.79q17.64 0 29.61 4.726 12.284 4.41 19.53 12.915 7.56 8.19 10.71 19.846 3.15 11.34 3.15 25.2V588.83q-3.78.63-10.71 1.89-6.616.946-15.12 1.89-8.506.946-18.586 1.576-9.765.945-19.53.945-13.86 0-25.515-2.834-11.656-2.835-20.16-8.82-8.506-6.3-13.23-16.38-4.726-10.08-4.726-24.255 0-13.544 5.355-23.31 5.67-9.764 15.12-15.75 9.45-5.984 22.05-8.82 12.6-2.834 26.46-2.834 4.41 0 9.134.63 4.725.315 8.82 1.26 4.41.63 7.56 1.26 3.15.63 4.41.945v-8.19q0-7.244-1.575-14.174-1.576-7.245-5.67-12.6-4.096-5.67-11.34-8.82-6.93-3.465-18.27-3.465-14.49 0-25.516 2.206-10.71 1.89-16.065 4.095l-3.466-24.254q5.67-2.52 18.9-4.725 13.23-2.52 28.665-2.52z" font-weight="400" font-size="15" font-family="Ubuntu" letter-spacing="0" word-spacing="0" fill="#00909a"/><path d="M516.627 368.984c.544 3.173.826 6.52.826 10.057 0 4.174-.394 8.106-1.152 11.815h273.423c-.717-3.71-1.088-7.64-1.088-11.814 0-3.535.265-6.883.78-10.056H516.626z" style="line-height:125%;-inkscape-font-specification:Ubuntu" font-weight="400" font-size="15" font-family="Ubuntu" letter-spacing="0" word-spacing="0" fill="#f5f5f5"/><path d="M850.88 591.63h-29.294V427.867h29.295zM836.076 398.256q-7.875 0-13.545-5.04-5.354-5.355-5.354-14.175t5.355-13.86q5.67-5.354 13.546-5.354 7.875 0 13.23 5.355 5.67 5.04 5.67 13.86t-5.67 14.176q-5.355 5.04-13.23 5.04z" style="line-height:125%;-inkscape-font-specification:Ubuntu" font-weight="400" font-size="15" font-family="Ubuntu" letter-spacing="0" word-spacing="0" fill="#00909a"/><path d="M790.295 207.074l-285.03 139.13c5.354 5.436 8.95 12.046 10.774 19.837L798.85 227.993c-.005-.005-.008-.012-.012-.017a43.3 43.3 0 0 1-4.317-7.09 44.758 44.758 0 0 1-1.104-2.47l-.09-.22c-.33-.814-.64-1.642-.928-2.484-.01-.033-.023-.067-.035-.1a51.358 51.358 0 0 1-2.072-8.536z" style="line-height:125%;-inkscape-font-specification:Ubuntu" font-weight="400" font-size="15" font-family="Ubuntu" letter-spacing="0" word-spacing="0" fill="#f5f5f5"/><path style="line-height:125%;-inkscape-font-specification:Ubuntu" d="M837.113 216.412q-7.875 0-13.545-5.04-5.355-5.355-5.355-14.175t5.355-13.86q5.67-5.355 13.545-5.355t13.23 5.355q5.67 5.04 5.67 13.86t-5.67 14.175q-5.355 5.04-13.23 5.04z" font-weight="400" font-size="15" font-family="Ubuntu" letter-spacing="0" word-spacing="0" fill="#e1e1e1"/><path d="M171.47 368.984v21.87H423.66c-.716-3.708-1.088-7.64-1.088-11.813 0-3.535.265-6.883.78-10.056H171.47z" style="line-height:125%;-inkscape-font-specification:Ubuntu" font-weight="400" font-size="15" font-family="Ubuntu" letter-spacing="0" word-spacing="0" fill="#f5f5f5"/><path style="line-height:125%;-inkscape-font-specification:Ubuntu" d="M484.817 591.63h-29.295V427.867h29.295zM470.012 398.256q-7.875 0-13.545-5.04-5.355-5.355-5.355-14.175t5.355-13.86q5.67-5.354 13.545-5.354t13.23 5.355q5.67 5.04 5.67 13.86t-5.67 14.176q-5.355 5.04-13.23 5.04zM274.643 432.59c6.72-1.68 15.645-3.464 26.775-5.354 11.13-1.89 23.94-2.835 38.43-2.835 13.02 0 23.835 1.89 32.445 5.67 8.61 3.57 15.435 8.716 20.475 15.436 5.25 6.51 8.925 14.385 11.025 23.625 2.1 9.24 3.15 19.426 3.15 30.556v91.945h-29.295v-85.644c0-10.08-.735-18.69-2.205-25.83-1.26-7.14-3.465-12.915-6.615-17.325-3.15-4.41-7.35-7.56-12.6-9.45-5.25-2.1-11.76-3.15-19.53-3.15-3.15 0-6.405.106-9.765.316-3.36.21-6.615.525-9.765.945-2.94.21-5.67.526-8.19.946-2.31.42-3.99.735-5.04.945v96.286h-29.295z" font-weight="400" font-size="15" font-family="Ubuntu" letter-spacing="0" word-spacing="0" fill="#00909a"/><path style="line-height:125%;-inkscape-font-specification:Ubuntu" d="M304.003 586.94c-6.72 1.68-15.727 3.466-26.857 5.356-10.92 1.89-23.625 2.835-38.115 2.835-12.6 0-23.204-1.784-31.814-5.354-8.61-3.78-15.54-9.03-20.79-15.75-5.25-6.72-9.03-14.595-11.34-23.625-2.31-9.24-3.475-19.424-3.465-30.554v-91.98h29.296v85.68c0 19.95 3.15 34.23 9.45 42.84 6.3 8.61 16.905 12.915 31.815 12.915 3.15 0 6.406-.104 9.766-.314 3.36-.21 6.51-.42 9.45-.63 2.94-.42 5.565-.735 7.875-.945 2.52-.42 4.306-.84 5.356-1.26v-66.503c16.013-7.354 29.314-7.996 29.314-7.996z" font-weight="400" font-size="15" font-family="Ubuntu" letter-spacing="0" word-spacing="0" fill="#f54d27"/></svg>